General                          : ChattChitto RG - Movies [R2L]
==========
Complete name                    : Young People Fucking 2007 720p BRRip H264 [ChattChitto RG]
Format                           : MPEG-4
Format profile                   : Base Media
Codec ID                         : isom
File size                        : 1.67 GiB
Duration                         : 1h 30mn
Overall bit rate                 : 2 650 Kbps
Encoded date                     : UTC 2011-03-20 01:02:45

Video
==========
ID                               : 1
Format                           : AVC
Format/Info                      : Advanced Video Codec
Format profile                   : High@L4.1
Format settings, CABAC           : Yes
Format settings, ReFrames        : 4 frames
Codec ID                         : avc1
Codec ID/Info                    : Advanced Video Coding
Duration                         : 1h 30mn
Bit rate mode                    : Variable
Bit rate                         : 2 300 Kbps
Maximum bit rate                 : 5 982 Kbps
Width                            : 1 280 pixels
Height                           : 720 pixels
Display aspect ratio             : 16:9
Frame rate mode                  : Constant
Frame rate                       : 23.976 fps
Color space                      : YUV
Chroma subsampling               : 4:2:0
Bit depth                        : 8 bits
Scan type                        : Progressive
Bits/(Pixel*Frame)               : 0.104
Stream size                      : 1.45 GiB (87%)
Writing library                  : x264 core 107 r1745 4785e8e
Encoded date                     : UTC 2011-03-20 12:56:21

Audio
==========
ID                               : 2
Format                           : AAC
Format/Info                      : Advanced Audio Codec
Format profile                   : LC
Codec ID                         : 40
Duration                         : 1h 30mn
Bit rate mode                    : Variable
Bit rate                         : 352.8 Kbps
Maximum bit rate                 : 435 Kbps
Channel(s)                       : 6 channels
Channel positions                : Front: L C R, Side: L R, LFE
Sampling rate                    : 48.0 KHz
Compression mode                 : Lossy
Stream size                      : 224 MiB (13%)
Encoded date                     : UTC 2011-03-20 01:03:04

Subtitles                        : None


----------------------------------------------------
IMDB Link: http://www.imdb.com/title/tt0913445/
----------------------------------------------------



Screen Shots:
==============    
http://chattchitto.net/chattchittorg/movies/brrip/2011/young_people_fing/3.png 
http://chattchitto.net/chattchittorg/movies/brrip/2011/young_people_fing/4.png 
http://chattchitto.net/chattchittorg/movies/brrip/2011/young_people_fing/5.png 
http://chattchitto.net/chattchittorg/movies/brrip/2011/young_people_fing/6.png 
http://chattchitto.net/chattchittorg/movies/brrip/2011/young_people_fing/7.png



ScreenShots Comparison:
=========================  
http://screenshotcomparison.com/comparison/37581



Plot:
======
On a Tuesday night, five couples have separate sexual adventures. Matt and Kris, friends for years, want to have an only-once...  



Release Info:
==============
original name .... : Young People Fucking 2007 720p BRRip H264 [ChattChitto RG]
ripper.............: SiNNERS
encoder............: Recalled2Life (R2L)
video codec........: H264/.MP4
video bitrate......: 2300 Kbps
audio codec........: AAC-LC
aspect ratio.......: 16:9
resolution.........: 1280 x 720
genre..............: Comedy | Drama | Romance
runtime............: 1h 30mn
language...........: English
rating.............: R
subtitles..........: None
sample.............: Yes
2ch Audio..........: 2ch Audio for XBox Viewers
Compatibility .....: XBox | PS3 | WD Live



Source:
========
Young.People.Fucking.2007.720p.BluRay.x264-SiNNERS  THANKS!



Notes:
=======
ChattChitto RG Encourages Burning this Film with ConvertXtoDVD and Playing with VLC media player.
XBox 360 | PS3 | WD Live - Compatible 
Enhanced for your viewing pleasure ;)